<?xml version="1.0" encoding="UTF-8"?>
<svg xmlns="http://www.w3.org/2000/svg" width="1024" height="1024" viewBox="0 0 1024 1024">
  <defs>
    <radialGradient id="feltGlow" cx="50%" cy="45%" r="65%">
      <stop offset="0%" stop-color="#0fa373"/>
      <stop offset="46%" stop-color="#087056"/>
      <stop offset="100%" stop-color="#03463b"/>
    </radialGradient>
    <pattern id="woven" width="18" height="18" patternUnits="userSpaceOnUse">
      <path d="M0 8H18M8 0V18" stroke="#74c7a2" stroke-opacity=".06" stroke-width="1"/>
      <path d="M0 17H18M17 0V18" stroke="#001b18" stroke-opacity=".16" stroke-width="1"/>
    </pattern>
    <filter id="softNoise">
      <feTurbulence type="fractalNoise" baseFrequency="0.9" numOctaves="2" seed="23" result="noise"/>
      <feColorMatrix type="saturate" values="0"/>
      <feComponentTransfer>
        <feFuncA type="table" tableValues="0 0.1"/>
      </feComponentTransfer>
    </filter>
    <linearGradient id="feltWood" x1="0" y1="0" x2="1" y2="1">
      <stop offset="0%" stop-color="#51270f"/>
      <stop offset="34%" stop-color="#9c541e"/>
      <stop offset="58%" stop-color="#45200e"/>
      <stop offset="100%" stop-color="#c98a38"/>
    </linearGradient>
    <linearGradient id="feltGold" x1="0" y1="0" x2="1" y2="0">
      <stop offset="0%" stop-color="#6d430d"/>
      <stop offset="20%" stop-color="#f8d879"/>
      <stop offset="50%" stop-color="#8a560f"/>
      <stop offset="80%" stop-color="#fff0a7"/>
      <stop offset="100%" stop-color="#6d430d"/>
    </linearGradient>
  </defs>
  <rect width="1024" height="1024" fill="url(#feltGlow)"/>
  <rect width="1024" height="1024" fill="url(#woven)"/>
  <path d="M78 82H946V942H78Z M150 156H874V868H150Z"
        fill="url(#feltWood)" fill-rule="evenodd" opacity=".95"/>
  <path d="M101 105H923V919H101Z M150 156H874V868H150Z"
        fill="none" stroke="url(#feltGold)" stroke-width="16" stroke-linejoin="round" opacity=".9"/>
  <path d="M150 156H874V868H150Z" fill="none" stroke="#261006" stroke-width="10" opacity=".78"/>
  <path d="M128 128H896M128 896H896M128 128V896M896 128V896"
        stroke="#ffdf7b" stroke-opacity=".24" stroke-width="8" stroke-linecap="round"/>
  <circle cx="512" cy="500" r="250" fill="none" stroke="#9ed7bd" stroke-width="12" stroke-opacity=".08"/>
  <circle cx="512" cy="500" r="178" fill="none" stroke="#042b25" stroke-width="6" stroke-opacity=".35"/>
  <path d="M214 246H810V778H214Z" fill="none" stroke="#d3b25b" stroke-opacity=".13" stroke-width="7"/>
  <path d="M247 279H777V745H247Z" fill="none" stroke="#9be3bd" stroke-opacity=".1" stroke-width="3"/>
  <path d="M512 220c78 92 144 143 248 168-99 31-166 82-248 177-84-96-151-147-248-177 103-24 170-76 248-168Z"
        fill="none" stroke="#d5be70" stroke-opacity=".08" stroke-width="10"/>
  <rect width="1024" height="1024" filter="url(#softNoise)" opacity=".45"/>
</svg>