<?xml version="1.0" encoding="UTF-8"?>
<svg xmlns="http://www.w3.org/2000/svg" width="512" height="512" viewBox="0 0 512 512">
  <defs>
    <linearGradient id="faceGrad" x1="0" y1="0" x2="0" y2="1">
      <stop offset="0%" stop-color="#fffef6"/>
      <stop offset="66%" stop-color="#ece9dd"/>
      <stop offset="100%" stop-color="#d2d3ca"/>
    </linearGradient>
    <linearGradient id="backGrad" x1="0" y1="0" x2="0" y2="1">
      <stop offset="0%" stop-color="#9cf279"/>
      <stop offset="45%" stop-color="#4bc65a"/>
      <stop offset="100%" stop-color="#238b42"/>
    </linearGradient>
    <linearGradient id="sideGrad" x1="0" y1="0" x2="1" y2="1">
      <stop offset="0%" stop-color="#fff8e5"/>
      <stop offset="62%" stop-color="#d8d1bd"/>
      <stop offset="100%" stop-color="#58ad5f"/>
    </linearGradient>
  </defs>
  <rect width="512" height="512" fill="#23884e"/>
  <rect y="320" width="512" height="96" fill="url(#backGrad)"/>
  <rect y="416" width="512" height="96" fill="url(#sideGrad)"/>
  <g font-family="Microsoft YaHei, SimHei, Noto Sans CJK SC, serif" dominant-baseline="middle">
    
    <g>
      <rect x="4" y="4" width="56" height="70" rx="7" fill="#f8f5e8"/>
      <rect x="6" y="6" width="52" height="65" rx="6" fill="url(#faceGrad)"/>
      <path d="M9 65H55V71H9Z" fill="#5ebd70" opacity=".5"/>
      
      <text x="32" y="38" text-anchor="middle" font-size="29" font-weight="800"
        fill="#151815">一</text>
      <text x="32" y="64" text-anchor="middle" font-size="20" font-weight="800" fill="#b9231f">萬</text>
    
    </g>

    <g>
      <rect x="68" y="4" width="56" height="70" rx="7" fill="#f8f5e8"/>
      <rect x="70" y="6" width="52" height="65" rx="6" fill="url(#faceGrad)"/>
      <path d="M73 65H119V71H73Z" fill="#5ebd70" opacity=".5"/>
      
      <text x="96" y="38" text-anchor="middle" font-size="29" font-weight="800"
        fill="#151815">二</text>
      <text x="96" y="64" text-anchor="middle" font-size="20" font-weight="800" fill="#b9231f">萬</text>
    
    </g>

    <g>
      <rect x="132" y="4" width="56" height="70" rx="7" fill="#f8f5e8"/>
      <rect x="134" y="6" width="52" height="65" rx="6" fill="url(#faceGrad)"/>
      <path d="M137 65H183V71H137Z" fill="#5ebd70" opacity=".5"/>
      
      <text x="160" y="38" text-anchor="middle" font-size="29" font-weight="800"
        fill="#151815">三</text>
      <text x="160" y="64" text-anchor="middle" font-size="20" font-weight="800" fill="#b9231f">萬</text>
    
    </g>

    <g>
      <rect x="196" y="4" width="56" height="70" rx="7" fill="#f8f5e8"/>
      <rect x="198" y="6" width="52" height="65" rx="6" fill="url(#faceGrad)"/>
      <path d="M201 65H247V71H201Z" fill="#5ebd70" opacity=".5"/>
      
      <text x="224" y="38" text-anchor="middle" font-size="29" font-weight="800"
        fill="#151815">四</text>
      <text x="224" y="64" text-anchor="middle" font-size="20" font-weight="800" fill="#b9231f">萬</text>
    
    </g>

    <g>
      <rect x="260" y="4" width="56" height="70" rx="7" fill="#f8f5e8"/>
      <rect x="262" y="6" width="52" height="65" rx="6" fill="url(#faceGrad)"/>
      <path d="M265 65H311V71H265Z" fill="#5ebd70" opacity=".5"/>
      
      <text x="288" y="38" text-anchor="middle" font-size="29" font-weight="800"
        fill="#151815">五</text>
      <text x="288" y="64" text-anchor="middle" font-size="20" font-weight="800" fill="#b9231f">萬</text>
    
    </g>

    <g>
      <rect x="324" y="4" width="56" height="70" rx="7" fill="#f8f5e8"/>
      <rect x="326" y="6" width="52" height="65" rx="6" fill="url(#faceGrad)"/>
      <path d="M329 65H375V71H329Z" fill="#5ebd70" opacity=".5"/>
      
      <text x="352" y="38" text-anchor="middle" font-size="29" font-weight="800"
        fill="#151815">六</text>
      <text x="352" y="64" text-anchor="middle" font-size="20" font-weight="800" fill="#b9231f">萬</text>
    
    </g>

    <g>
      <rect x="388" y="4" width="56" height="70" rx="7" fill="#f8f5e8"/>
      <rect x="390" y="6" width="52" height="65" rx="6" fill="url(#faceGrad)"/>
      <path d="M393 65H439V71H393Z" fill="#5ebd70" opacity=".5"/>
      
      <text x="416" y="38" text-anchor="middle" font-size="29" font-weight="800"
        fill="#151815">七</text>
      <text x="416" y="64" text-anchor="middle" font-size="20" font-weight="800" fill="#b9231f">萬</text>
    
    </g>

    <g>
      <rect x="452" y="4" width="56" height="70" rx="7" fill="#f8f5e8"/>
      <rect x="454" y="6" width="52" height="65" rx="6" fill="url(#faceGrad)"/>
      <path d="M457 65H503V71H457Z" fill="#5ebd70" opacity=".5"/>
      
      <text x="480" y="38" text-anchor="middle" font-size="29" font-weight="800"
        fill="#151815">八</text>
      <text x="480" y="64" text-anchor="middle" font-size="20" font-weight="800" fill="#b9231f">萬</text>
    
    </g>

    <g>
      <rect x="4" y="84" width="56" height="70" rx="7" fill="#f8f5e8"/>
      <rect x="6" y="86" width="52" height="65" rx="6" fill="url(#faceGrad)"/>
      <path d="M9 145H55V151H9Z" fill="#5ebd70" opacity=".5"/>
      
      <text x="32" y="118" text-anchor="middle" font-size="29" font-weight="800"
        fill="#151815">九</text>
      <text x="32" y="144" text-anchor="middle" font-size="20" font-weight="800" fill="#b9231f">萬</text>
    
    </g>

    <g>
      <rect x="68" y="84" width="56" height="70" rx="7" fill="#f8f5e8"/>
      <rect x="70" y="86" width="52" height="65" rx="6" fill="url(#faceGrad)"/>
      <path d="M73 145H119V151H73Z" fill="#5ebd70" opacity=".5"/>
      <circle cx="96" cy="121" r="6.4" fill="none" stroke="#b9231f" stroke-width="3.4"/>
        <circle cx="96" cy="121" r="2.8800000000000003" fill="#b9231f" opacity=".88"/>
    </g>

    <g>
      <rect x="132" y="84" width="56" height="70" rx="7" fill="#f8f5e8"/>
      <rect x="134" y="86" width="52" height="65" rx="6" fill="url(#faceGrad)"/>
      <path d="M137 145H183V151H137Z" fill="#5ebd70" opacity=".5"/>
      <circle cx="147.9" cy="108.9" r="6.4" fill="none" stroke="#b9231f" stroke-width="3.4"/>
        <circle cx="147.9" cy="108.9" r="2.8800000000000003" fill="#b9231f" opacity=".88"/>
<circle cx="172.1" cy="133.1" r="6.4" fill="none" stroke="#0b7a54" stroke-width="3.4"/>
        <circle cx="172.1" cy="133.1" r="2.8800000000000003" fill="#0b7a54" opacity=".88"/>
    </g>

    <g>
      <rect x="196" y="84" width="56" height="70" rx="7" fill="#f8f5e8"/>
      <rect x="198" y="86" width="52" height="65" rx="6" fill="url(#faceGrad)"/>
      <path d="M201 145H247V151H201Z" fill="#5ebd70" opacity=".5"/>
      <circle cx="210.8" cy="107.8" r="6.4" fill="none" stroke="#b9231f" stroke-width="3.4"/>
        <circle cx="210.8" cy="107.8" r="2.8800000000000003" fill="#b9231f" opacity=".88"/>
<circle cx="224" cy="121" r="6.4" fill="none" stroke="#0b7a54" stroke-width="3.4"/>
        <circle cx="224" cy="121" r="2.8800000000000003" fill="#0b7a54" opacity=".88"/>
<circle cx="237.2" cy="134.2" r="6.4" fill="none" stroke="#b9231f" stroke-width="3.4"/>
        <circle cx="237.2" cy="134.2" r="2.8800000000000003" fill="#b9231f" opacity=".88"/>
    </g>

    <g>
      <rect x="260" y="84" width="56" height="70" rx="7" fill="#f8f5e8"/>
      <rect x="262" y="86" width="52" height="65" rx="6" fill="url(#faceGrad)"/>
      <path d="M265 145H311V151H265Z" fill="#5ebd70" opacity=".5"/>
      <circle cx="275.9" cy="108.9" r="6.4" fill="none" stroke="#b9231f" stroke-width="3.4"/>
        <circle cx="275.9" cy="108.9" r="2.8800000000000003" fill="#b9231f" opacity=".88"/>
<circle cx="300.1" cy="108.9" r="6.4" fill="none" stroke="#0b7a54" stroke-width="3.4"/>
        <circle cx="300.1" cy="108.9" r="2.8800000000000003" fill="#0b7a54" opacity=".88"/>
<circle cx="275.9" cy="133.1" r="6.4" fill="none" stroke="#b9231f" stroke-width="3.4"/>
        <circle cx="275.9" cy="133.1" r="2.8800000000000003" fill="#b9231f" opacity=".88"/>
<circle cx="300.1" cy="133.1" r="6.4" fill="none" stroke="#0b7a54" stroke-width="3.4"/>
        <circle cx="300.1" cy="133.1" r="2.8800000000000003" fill="#0b7a54" opacity=".88"/>
    </g>

    <g>
      <rect x="324" y="84" width="56" height="70" rx="7" fill="#f8f5e8"/>
      <rect x="326" y="86" width="52" height="65" rx="6" fill="url(#faceGrad)"/>
      <path d="M329 145H375V151H329Z" fill="#5ebd70" opacity=".5"/>
      <circle cx="338.36" cy="107.36" r="6.4" fill="none" stroke="#b9231f" stroke-width="3.4"/>
        <circle cx="338.36" cy="107.36" r="2.8800000000000003" fill="#b9231f" opacity=".88"/>
<circle cx="365.64" cy="107.36" r="6.4" fill="none" stroke="#0b7a54" stroke-width="3.4"/>
        <circle cx="365.64" cy="107.36" r="2.8800000000000003" fill="#0b7a54" opacity=".88"/>
<circle cx="352" cy="121" r="6.4" fill="none" stroke="#b9231f" stroke-width="3.4"/>
        <circle cx="352" cy="121" r="2.8800000000000003" fill="#b9231f" opacity=".88"/>
<circle cx="338.36" cy="134.64" r="6.4" fill="none" stroke="#0b7a54" stroke-width="3.4"/>
        <circle cx="338.36" cy="134.64" r="2.8800000000000003" fill="#0b7a54" opacity=".88"/>
<circle cx="365.64" cy="134.64" r="6.4" fill="none" stroke="#b9231f" stroke-width="3.4"/>
        <circle cx="365.64" cy="134.64" r="2.8800000000000003" fill="#b9231f" opacity=".88"/>
    </g>

    <g>
      <rect x="388" y="84" width="56" height="70" rx="7" fill="#f8f5e8"/>
      <rect x="390" y="86" width="52" height="65" rx="6" fill="url(#faceGrad)"/>
      <path d="M393 145H439V151H393Z" fill="#5ebd70" opacity=".5"/>
      <circle cx="402.36" cy="105.6" r="6.4" fill="none" stroke="#b9231f" stroke-width="3.4"/>
        <circle cx="402.36" cy="105.6" r="2.8800000000000003" fill="#b9231f" opacity=".88"/>
<circle cx="429.64" cy="105.6" r="6.4" fill="none" stroke="#0b7a54" stroke-width="3.4"/>
        <circle cx="429.64" cy="105.6" r="2.8800000000000003" fill="#0b7a54" opacity=".88"/>
<circle cx="402.36" cy="121" r="6.4" fill="none" stroke="#b9231f" stroke-width="3.4"/>
        <circle cx="402.36" cy="121" r="2.8800000000000003" fill="#b9231f" opacity=".88"/>
<circle cx="429.64" cy="121" r="6.4" fill="none" stroke="#0b7a54" stroke-width="3.4"/>
        <circle cx="429.64" cy="121" r="2.8800000000000003" fill="#0b7a54" opacity=".88"/>
<circle cx="402.36" cy="136.4" r="6.4" fill="none" stroke="#b9231f" stroke-width="3.4"/>
        <circle cx="402.36" cy="136.4" r="2.8800000000000003" fill="#b9231f" opacity=".88"/>
<circle cx="429.64" cy="136.4" r="6.4" fill="none" stroke="#0b7a54" stroke-width="3.4"/>
        <circle cx="429.64" cy="136.4" r="2.8800000000000003" fill="#0b7a54" opacity=".88"/>
    </g>

    <g>
      <rect x="452" y="84" width="56" height="70" rx="7" fill="#f8f5e8"/>
      <rect x="454" y="86" width="52" height="65" rx="6" fill="url(#faceGrad)"/>
      <path d="M457 145H503V151H457Z" fill="#5ebd70" opacity=".5"/>
      <circle cx="467.4" cy="108.4" r="5.2" fill="none" stroke="#b9231f" stroke-width="3.4"/>
        <circle cx="467.4" cy="108.4" r="2.3400000000000003" fill="#b9231f" opacity=".88"/>
<circle cx="480" cy="108.4" r="5.2" fill="none" stroke="#0b7a54" stroke-width="3.4"/>
        <circle cx="480" cy="108.4" r="2.3400000000000003" fill="#0b7a54" opacity=".88"/>
<circle cx="492.6" cy="108.4" r="5.2" fill="none" stroke="#b9231f" stroke-width="3.4"/>
        <circle cx="492.6" cy="108.4" r="2.3400000000000003" fill="#b9231f" opacity=".88"/>
<circle cx="471.36" cy="121" r="5.2" fill="none" stroke="#0b7a54" stroke-width="3.4"/>
        <circle cx="471.36" cy="121" r="2.3400000000000003" fill="#0b7a54" opacity=".88"/>
<circle cx="488.64" cy="121" r="5.2" fill="none" stroke="#b9231f" stroke-width="3.4"/>
        <circle cx="488.64" cy="121" r="2.3400000000000003" fill="#b9231f" opacity=".88"/>
<circle cx="471.36" cy="133.6" r="5.2" fill="none" stroke="#0b7a54" stroke-width="3.4"/>
        <circle cx="471.36" cy="133.6" r="2.3400000000000003" fill="#0b7a54" opacity=".88"/>
<circle cx="488.64" cy="133.6" r="5.2" fill="none" stroke="#b9231f" stroke-width="3.4"/>
        <circle cx="488.64" cy="133.6" r="2.3400000000000003" fill="#b9231f" opacity=".88"/>
    </g>

    <g>
      <rect x="4" y="164" width="56" height="70" rx="7" fill="#f8f5e8"/>
      <rect x="6" y="166" width="52" height="65" rx="6" fill="url(#faceGrad)"/>
      <path d="M9 225H55V231H9Z" fill="#5ebd70" opacity=".5"/>
      <circle cx="19.4" cy="187.5" r="5.2" fill="none" stroke="#b9231f" stroke-width="3.4"/>
        <circle cx="19.4" cy="187.5" r="2.3400000000000003" fill="#b9231f" opacity=".88"/>
<circle cx="32" cy="187.5" r="5.2" fill="none" stroke="#0b7a54" stroke-width="3.4"/>
        <circle cx="32" cy="187.5" r="2.3400000000000003" fill="#0b7a54" opacity=".88"/>
<circle cx="44.6" cy="187.5" r="5.2" fill="none" stroke="#b9231f" stroke-width="3.4"/>
        <circle cx="44.6" cy="187.5" r="2.3400000000000003" fill="#b9231f" opacity=".88"/>
<circle cx="19.4" cy="201" r="5.2" fill="none" stroke="#0b7a54" stroke-width="3.4"/>
        <circle cx="19.4" cy="201" r="2.3400000000000003" fill="#0b7a54" opacity=".88"/>
<circle cx="44.6" cy="201" r="5.2" fill="none" stroke="#b9231f" stroke-width="3.4"/>
        <circle cx="44.6" cy="201" r="2.3400000000000003" fill="#b9231f" opacity=".88"/>
<circle cx="19.4" cy="214.5" r="5.2" fill="none" stroke="#0b7a54" stroke-width="3.4"/>
        <circle cx="19.4" cy="214.5" r="2.3400000000000003" fill="#0b7a54" opacity=".88"/>
<circle cx="32" cy="214.5" r="5.2" fill="none" stroke="#b9231f" stroke-width="3.4"/>
        <circle cx="32" cy="214.5" r="2.3400000000000003" fill="#b9231f" opacity=".88"/>
<circle cx="44.6" cy="214.5" r="5.2" fill="none" stroke="#0b7a54" stroke-width="3.4"/>
        <circle cx="44.6" cy="214.5" r="2.3400000000000003" fill="#0b7a54" opacity=".88"/>
    </g>

    <g>
      <rect x="68" y="164" width="56" height="70" rx="7" fill="#f8f5e8"/>
      <rect x="70" y="166" width="52" height="65" rx="6" fill="url(#faceGrad)"/>
      <path d="M73 225H119V231H73Z" fill="#5ebd70" opacity=".5"/>
      <circle cx="83.4" cy="188.04" r="5.2" fill="none" stroke="#b9231f" stroke-width="3.4"/>
        <circle cx="83.4" cy="188.04" r="2.3400000000000003" fill="#b9231f" opacity=".88"/>
<circle cx="96" cy="188.04" r="5.2" fill="none" stroke="#0b7a54" stroke-width="3.4"/>
        <circle cx="96" cy="188.04" r="2.3400000000000003" fill="#0b7a54" opacity=".88"/>
<circle cx="108.6" cy="188.04" r="5.2" fill="none" stroke="#b9231f" stroke-width="3.4"/>
        <circle cx="108.6" cy="188.04" r="2.3400000000000003" fill="#b9231f" opacity=".88"/>
<circle cx="83.4" cy="201" r="5.2" fill="none" stroke="#0b7a54" stroke-width="3.4"/>
        <circle cx="83.4" cy="201" r="2.3400000000000003" fill="#0b7a54" opacity=".88"/>
<circle cx="96" cy="201" r="5.2" fill="none" stroke="#b9231f" stroke-width="3.4"/>
        <circle cx="96" cy="201" r="2.3400000000000003" fill="#b9231f" opacity=".88"/>
<circle cx="108.6" cy="201" r="5.2" fill="none" stroke="#0b7a54" stroke-width="3.4"/>
        <circle cx="108.6" cy="201" r="2.3400000000000003" fill="#0b7a54" opacity=".88"/>
<circle cx="83.4" cy="213.96" r="5.2" fill="none" stroke="#b9231f" stroke-width="3.4"/>
        <circle cx="83.4" cy="213.96" r="2.3400000000000003" fill="#b9231f" opacity=".88"/>
<circle cx="96" cy="213.96" r="5.2" fill="none" stroke="#0b7a54" stroke-width="3.4"/>
        <circle cx="96" cy="213.96" r="2.3400000000000003" fill="#0b7a54" opacity=".88"/>
<circle cx="108.6" cy="213.96" r="5.2" fill="none" stroke="#b9231f" stroke-width="3.4"/>
        <circle cx="108.6" cy="213.96" r="2.3400000000000003" fill="#b9231f" opacity=".88"/>
    </g>

    <g>
      <rect x="132" y="164" width="56" height="70" rx="7" fill="#f8f5e8"/>
      <rect x="134" y="166" width="52" height="65" rx="6" fill="url(#faceGrad)"/>
      <path d="M137 225H183V231H137Z" fill="#5ebd70" opacity=".5"/>
      <rect x="155" y="184" width="10" height="34" rx="4" fill="#b9231f"/>
        <path d="M153 196H167M153 207H167" stroke="#f3fff2" stroke-width="2" opacity=".65"/>
    </g>

    <g>
      <rect x="196" y="164" width="56" height="70" rx="7" fill="#f8f5e8"/>
      <rect x="198" y="166" width="52" height="65" rx="6" fill="url(#faceGrad)"/>
      <path d="M201 225H247V231H201Z" fill="#5ebd70" opacity=".5"/>
      <rect x="211.02" y="184" width="10" height="34" rx="4" fill="#b9231f"/>
        <path d="M209.02 196H223.02M209.02 207H223.02" stroke="#f3fff2" stroke-width="2" opacity=".65"/>
<rect x="226.98" y="184" width="10" height="34" rx="4" fill="#12754b"/>
        <path d="M224.98 196H238.98M224.98 207H238.98" stroke="#f3fff2" stroke-width="2" opacity=".65"/>
    </g>

    <g>
      <rect x="260" y="164" width="56" height="70" rx="7" fill="#f8f5e8"/>
      <rect x="262" y="166" width="52" height="65" rx="6" fill="url(#faceGrad)"/>
      <path d="M265 225H311V231H265Z" fill="#5ebd70" opacity=".5"/>
      <rect x="271.45" y="184" width="10" height="34" rx="4" fill="#b9231f"/>
        <path d="M269.45 196H283.45M269.45 207H283.45" stroke="#f3fff2" stroke-width="2" opacity=".65"/>
<rect x="283" y="184" width="10" height="34" rx="4" fill="#12754b"/>
        <path d="M281 196H295M281 207H295" stroke="#f3fff2" stroke-width="2" opacity=".65"/>
<rect x="294.55" y="184" width="10" height="34" rx="4" fill="#12754b"/>
        <path d="M292.55 196H306.55M292.55 207H306.55" stroke="#f3fff2" stroke-width="2" opacity=".65"/>
    </g>

    <g>
      <rect x="324" y="164" width="56" height="70" rx="7" fill="#f8f5e8"/>
      <rect x="326" y="166" width="52" height="65" rx="6" fill="url(#faceGrad)"/>
      <path d="M329 225H375V231H329Z" fill="#5ebd70" opacity=".5"/>
      <rect x="337.55" y="174.55" width="10" height="34" rx="4" fill="#b9231f"/>
        <path d="M335.55 186.55H349.55M335.55 197.55H349.55" stroke="#f3fff2" stroke-width="2" opacity=".65"/>
<rect x="356.45" y="174.55" width="10" height="34" rx="4" fill="#12754b"/>
        <path d="M354.45 186.55H368.45M354.45 197.55H368.45" stroke="#f3fff2" stroke-width="2" opacity=".65"/>
<rect x="337.55" y="193.45" width="10" height="34" rx="4" fill="#12754b"/>
        <path d="M335.55 205.45H349.55M335.55 216.45H349.55" stroke="#f3fff2" stroke-width="2" opacity=".65"/>
<rect x="356.45" y="193.45" width="10" height="34" rx="4" fill="#12754b"/>
        <path d="M354.45 205.45H368.45M354.45 216.45H368.45" stroke="#f3fff2" stroke-width="2" opacity=".65"/>
    </g>

    <g>
      <rect x="388" y="164" width="56" height="70" rx="7" fill="#f8f5e8"/>
      <rect x="390" y="166" width="52" height="65" rx="6" fill="url(#faceGrad)"/>
      <path d="M393 225H439V231H393Z" fill="#5ebd70" opacity=".5"/>
      <rect x="399.45" y="173.5" width="10" height="34" rx="4" fill="#b9231f"/>
        <path d="M397.45 185.5H411.45M397.45 196.5H411.45" stroke="#f3fff2" stroke-width="2" opacity=".65"/>
<rect x="422.55" y="173.5" width="10" height="34" rx="4" fill="#12754b"/>
        <path d="M420.55 185.5H434.55M420.55 196.5H434.55" stroke="#f3fff2" stroke-width="2" opacity=".65"/>
<rect x="411" y="184" width="10" height="34" rx="4" fill="#12754b"/>
        <path d="M409 196H423M409 207H423" stroke="#f3fff2" stroke-width="2" opacity=".65"/>
<rect x="399.45" y="194.5" width="10" height="34" rx="4" fill="#12754b"/>
        <path d="M397.45 206.5H411.45M397.45 217.5H411.45" stroke="#f3fff2" stroke-width="2" opacity=".65"/>
<rect x="422.55" y="194.5" width="10" height="34" rx="4" fill="#b9231f"/>
        <path d="M420.55 206.5H434.55M420.55 217.5H434.55" stroke="#f3fff2" stroke-width="2" opacity=".65"/>
    </g>

    <g>
      <rect x="452" y="164" width="56" height="70" rx="7" fill="#f8f5e8"/>
      <rect x="454" y="166" width="52" height="65" rx="6" fill="url(#faceGrad)"/>
      <path d="M457 225H503V231H457Z" fill="#5ebd70" opacity=".5"/>
      <rect x="462.82" y="172.45" width="10" height="34" rx="4" fill="#b9231f"/>
        <path d="M460.82 184.45H474.82M460.82 195.45H474.82" stroke="#f3fff2" stroke-width="2" opacity=".65"/>
<rect x="475" y="172.45" width="10" height="34" rx="4" fill="#12754b"/>
        <path d="M473 184.45H487M473 195.45H487" stroke="#f3fff2" stroke-width="2" opacity=".65"/>
<rect x="487.18" y="172.45" width="10" height="34" rx="4" fill="#12754b"/>
        <path d="M485.18 184.45H499.18M485.18 195.45H499.18" stroke="#f3fff2" stroke-width="2" opacity=".65"/>
<rect x="462.82" y="195.55" width="10" height="34" rx="4" fill="#12754b"/>
        <path d="M460.82 207.55H474.82M460.82 218.55H474.82" stroke="#f3fff2" stroke-width="2" opacity=".65"/>
<rect x="475" y="195.55" width="10" height="34" rx="4" fill="#b9231f"/>
        <path d="M473 207.55H487M473 218.55H487" stroke="#f3fff2" stroke-width="2" opacity=".65"/>
<rect x="487.18" y="195.55" width="10" height="34" rx="4" fill="#12754b"/>
        <path d="M485.18 207.55H499.18M485.18 218.55H499.18" stroke="#f3fff2" stroke-width="2" opacity=".65"/>
    </g>

    <g>
      <rect x="4" y="244" width="56" height="70" rx="7" fill="#f8f5e8"/>
      <rect x="6" y="246" width="52" height="65" rx="6" fill="url(#faceGrad)"/>
      <path d="M9 305H55V311H9Z" fill="#5ebd70" opacity=".5"/>
      <rect x="17.14" y="253.45999999999998" width="10" height="34" rx="4" fill="#b9231f"/>
        <path d="M15.14 265.46H29.14M15.14 276.46H29.14" stroke="#f3fff2" stroke-width="2" opacity=".65"/>
<rect x="27" y="253.45999999999998" width="10" height="34" rx="4" fill="#12754b"/>
        <path d="M25 265.46H39M25 276.46H39" stroke="#f3fff2" stroke-width="2" opacity=".65"/>
<rect x="36.86" y="253.45999999999998" width="10" height="34" rx="4" fill="#12754b"/>
        <path d="M34.86 265.46H48.86M34.86 276.46H48.86" stroke="#f3fff2" stroke-width="2" opacity=".65"/>
<rect x="17.14" y="264" width="10" height="34" rx="4" fill="#12754b"/>
        <path d="M15.14 276H29.14M15.14 287H29.14" stroke="#f3fff2" stroke-width="2" opacity=".65"/>
<rect x="36.86" y="264" width="10" height="34" rx="4" fill="#b9231f"/>
        <path d="M34.86 276H48.86M34.86 287H48.86" stroke="#f3fff2" stroke-width="2" opacity=".65"/>
<rect x="21.05" y="274.54" width="10" height="34" rx="4" fill="#12754b"/>
        <path d="M19.05 286.54H33.05M19.05 297.54H33.05" stroke="#f3fff2" stroke-width="2" opacity=".65"/>
<rect x="32.95" y="274.54" width="10" height="34" rx="4" fill="#12754b"/>
        <path d="M30.950000000000003 286.54H44.95M30.950000000000003 297.54H44.95" stroke="#f3fff2" stroke-width="2" opacity=".65"/>
    </g>

    <g>
      <rect x="68" y="244" width="56" height="70" rx="7" fill="#f8f5e8"/>
      <rect x="70" y="246" width="52" height="65" rx="6" fill="url(#faceGrad)"/>
      <path d="M73 305H119V311H73Z" fill="#5ebd70" opacity=".5"/>
      <rect x="80.46000000000001" y="252.95" width="10" height="34" rx="4" fill="#b9231f"/>
        <path d="M78.46000000000001 264.95H92.46000000000001M78.46000000000001 275.95H92.46000000000001" stroke="#f3fff2" stroke-width="2" opacity=".65"/>
<rect x="91" y="252.95" width="10" height="34" rx="4" fill="#12754b"/>
        <path d="M89 264.95H103M89 275.95H103" stroke="#f3fff2" stroke-width="2" opacity=".65"/>
<rect x="101.53999999999999" y="252.95" width="10" height="34" rx="4" fill="#12754b"/>
        <path d="M99.53999999999999 264.95H113.53999999999999M99.53999999999999 275.95H113.53999999999999" stroke="#f3fff2" stroke-width="2" opacity=".65"/>
<rect x="80.46000000000001" y="264" width="10" height="34" rx="4" fill="#12754b"/>
        <path d="M78.46000000000001 276H92.46000000000001M78.46000000000001 287H92.46000000000001" stroke="#f3fff2" stroke-width="2" opacity=".65"/>
<rect x="101.53999999999999" y="264" width="10" height="34" rx="4" fill="#b9231f"/>
        <path d="M99.53999999999999 276H113.53999999999999M99.53999999999999 287H113.53999999999999" stroke="#f3fff2" stroke-width="2" opacity=".65"/>
<rect x="80.46000000000001" y="275.05" width="10" height="34" rx="4" fill="#12754b"/>
        <path d="M78.46000000000001 287.05H92.46000000000001M78.46000000000001 298.05H92.46000000000001" stroke="#f3fff2" stroke-width="2" opacity=".65"/>
<rect x="91" y="275.05" width="10" height="34" rx="4" fill="#12754b"/>
        <path d="M89 287.05H103M89 298.05H103" stroke="#f3fff2" stroke-width="2" opacity=".65"/>
<rect x="101.53999999999999" y="275.05" width="10" height="34" rx="4" fill="#12754b"/>
        <path d="M99.53999999999999 287.05H113.53999999999999M99.53999999999999 298.05H113.53999999999999" stroke="#f3fff2" stroke-width="2" opacity=".65"/>
    </g>

    <g>
      <rect x="132" y="244" width="56" height="70" rx="7" fill="#f8f5e8"/>
      <rect x="134" y="246" width="52" height="65" rx="6" fill="url(#faceGrad)"/>
      <path d="M137 305H183V311H137Z" fill="#5ebd70" opacity=".5"/>
      <rect x="144.46" y="252.95" width="10" height="34" rx="4" fill="#b9231f"/>
        <path d="M142.46 264.95H156.46M142.46 275.95H156.46" stroke="#f3fff2" stroke-width="2" opacity=".65"/>
<rect x="155" y="252.95" width="10" height="34" rx="4" fill="#12754b"/>
        <path d="M153 264.95H167M153 275.95H167" stroke="#f3fff2" stroke-width="2" opacity=".65"/>
<rect x="165.54" y="252.95" width="10" height="34" rx="4" fill="#12754b"/>
        <path d="M163.54 264.95H177.54M163.54 275.95H177.54" stroke="#f3fff2" stroke-width="2" opacity=".65"/>
<rect x="144.46" y="264" width="10" height="34" rx="4" fill="#12754b"/>
        <path d="M142.46 276H156.46M142.46 287H156.46" stroke="#f3fff2" stroke-width="2" opacity=".65"/>
<rect x="155" y="264" width="10" height="34" rx="4" fill="#b9231f"/>
        <path d="M153 276H167M153 287H167" stroke="#f3fff2" stroke-width="2" opacity=".65"/>
<rect x="165.54" y="264" width="10" height="34" rx="4" fill="#12754b"/>
        <path d="M163.54 276H177.54M163.54 287H177.54" stroke="#f3fff2" stroke-width="2" opacity=".65"/>
<rect x="144.46" y="275.05" width="10" height="34" rx="4" fill="#12754b"/>
        <path d="M142.46 287.05H156.46M142.46 298.05H156.46" stroke="#f3fff2" stroke-width="2" opacity=".65"/>
<rect x="155" y="275.05" width="10" height="34" rx="4" fill="#12754b"/>
        <path d="M153 287.05H167M153 298.05H167" stroke="#f3fff2" stroke-width="2" opacity=".65"/>
<rect x="165.54" y="275.05" width="10" height="34" rx="4" fill="#b9231f"/>
        <path d="M163.54 287.05H177.54M163.54 298.05H177.54" stroke="#f3fff2" stroke-width="2" opacity=".65"/>
    </g>

    <g>
      <rect x="196" y="244" width="56" height="70" rx="7" fill="#f8f5e8"/>
      <rect x="198" y="246" width="52" height="65" rx="6" fill="url(#faceGrad)"/>
      <path d="M201 305H247V311H201Z" fill="#5ebd70" opacity=".5"/>
      
      <text x="224" y="278" text-anchor="middle" font-size="40" font-weight="800"
        fill="#151815">東</text>
      
    
    </g>

    <g>
      <rect x="260" y="244" width="56" height="70" rx="7" fill="#f8f5e8"/>
      <rect x="262" y="246" width="52" height="65" rx="6" fill="url(#faceGrad)"/>
      <path d="M265 305H311V311H265Z" fill="#5ebd70" opacity=".5"/>
      
      <text x="288" y="278" text-anchor="middle" font-size="40" font-weight="800"
        fill="#151815">南</text>
      
    
    </g>

    <g>
      <rect x="324" y="244" width="56" height="70" rx="7" fill="#f8f5e8"/>
      <rect x="326" y="246" width="52" height="65" rx="6" fill="url(#faceGrad)"/>
      <path d="M329 305H375V311H329Z" fill="#5ebd70" opacity=".5"/>
      
      <text x="352" y="278" text-anchor="middle" font-size="40" font-weight="800"
        fill="#151815">西</text>
      
    
    </g>

    <g>
      <rect x="388" y="244" width="56" height="70" rx="7" fill="#f8f5e8"/>
      <rect x="390" y="246" width="52" height="65" rx="6" fill="url(#faceGrad)"/>
      <path d="M393 305H439V311H393Z" fill="#5ebd70" opacity=".5"/>
      
      <text x="416" y="278" text-anchor="middle" font-size="40" font-weight="800"
        fill="#151815">北</text>
      
    
    </g>

    <g>
      <rect x="452" y="244" width="56" height="70" rx="7" fill="#f8f5e8"/>
      <rect x="454" y="246" width="52" height="65" rx="6" fill="url(#faceGrad)"/>
      <path d="M457 305H503V311H457Z" fill="#5ebd70" opacity=".5"/>
      
      <text x="480" y="278" text-anchor="middle" font-size="40" font-weight="800"
        fill="#0b7a54">白</text>
      
    
    </g>

    <g>
      <rect x="4" y="324" width="56" height="70" rx="7" fill="#f8f5e8"/>
      <rect x="6" y="326" width="52" height="65" rx="6" fill="url(#faceGrad)"/>
      <path d="M9 385H55V391H9Z" fill="#5ebd70" opacity=".5"/>
      
      <text x="32" y="358" text-anchor="middle" font-size="40" font-weight="800"
        fill="#0b7a54">發</text>
      
    
    </g>

    <g>
      <rect x="68" y="324" width="56" height="70" rx="7" fill="#f8f5e8"/>
      <rect x="70" y="326" width="52" height="65" rx="6" fill="url(#faceGrad)"/>
      <path d="M73 385H119V391H73Z" fill="#5ebd70" opacity=".5"/>
      
      <text x="96" y="358" text-anchor="middle" font-size="40" font-weight="800"
        fill="#b9231f">中</text>
      
    
    </g>

    <g>
      <rect x="132" y="324" width="56" height="70" rx="7" fill="#f8f5e8"/>
      <rect x="134" y="326" width="52" height="65" rx="6" fill="url(#faceGrad)"/>
      <path d="M137 385H183V391H137Z" fill="#5ebd70" opacity=".5"/>
      
      <text x="160" y="358" text-anchor="middle" font-size="29" font-weight="800"
        fill="#b9231f">伍</text>
      <text x="160" y="384" text-anchor="middle" font-size="20" font-weight="800" fill="#b9231f">萬</text>
    
    </g>
  </g>
  <g opacity=".26">
    <path d="M0 320H512M0 400H512M0 416H512" stroke="#043021" stroke-width="3"/>
    <path d="M0 472H512" stroke="#ffffff" stroke-width="3"/>
  </g>
</svg>